<?xml version="1.0" encoding="UTF-8"?>
<svg version="1.1" xmlns="http://www.w3.org/2000/svg" width="1080" height="351">
<path d="M0 0 C3.46679688 0.04882812 3.46679688 0.04882812 6.93359375 0.09765625 C10.46090118 6.79510767 13.19935061 13.68042658 15.890625 20.75 C16.603256 22.60559704 17.31588926 24.46119323 18.02864361 26.3167429 C19.021068 28.90326457 20.0098565 31.49116956 20.99859619 34.07910156 C28.84861254 54.70105151 28.84861254 54.70105151 36.9453125 75.2265625 C37.21108597 75.90073715 37.47685944 76.5749118 37.75068665 77.26951599 C39.57468485 81.75378378 39.57468485 81.75378378 42.93359375 85.09765625 C46.66345897 85.36407519 49.38005446 85.28216935 52.93359375 84.09765625 C54.1041694 80.5859293 54.06782818 77.81038936 54.07885742 74.10351562 C54.08221603 73.39588577 54.08557465 72.68825592 54.08903503 71.95918274 C54.0985347 69.61990606 54.10048749 67.28070101 54.1015625 64.94140625 C54.1047752 63.3162025 54.10813928 61.69099904 54.11164856 60.0657959 C54.11763696 56.65957976 54.1194887 53.253389 54.11889648 49.84716797 C54.11879475 45.4789345 54.13245998 41.11086316 54.14966869 36.74266815 C54.160776 33.38669077 54.1628161 30.03075279 54.16228676 26.67475891 C54.16346829 25.06398458 54.16789975 23.45320927 54.17561913 21.842453 C54.18539575 19.5921179 54.18255062 17.34213746 54.17651367 15.09179688 C54.17793869 13.81067017 54.17936371 12.52954346 54.18083191 11.20959473 C54.17460661 7.93152669 54.17460661 7.93152669 51.93359375 5.09765625 C48.87930302 3.88480749 48.87930302 3.88480749 45.93359375 3.09765625 C45.93359375 2.10765625 45.93359375 1.11765625 45.93359375 0.09765625 C52.22827198 0.02074158 58.52282631 -0.03130078 64.81787109 -0.06713867 C66.95333382 -0.0821001 69.0887665 -0.10247659 71.22412109 -0.12866211 C103.80972555 -0.51785785 103.80972555 -0.51785785 113.93359375 8.09765625 C117.87409829 12.14185828 119.79996797 15.91538315 120.0390625 21.609375 C119.76932196 28.77248494 117.84658552 33.83524912 112.93359375 39.09765625 C108.99779011 42.24168689 104.69844679 44.45973802 99.93359375 46.09765625 C100.46984375 46.34515625 101.00609375 46.59265625 101.55859375 46.84765625 C107.23471592 49.83508897 112.32706437 52.88969096 114.703125 59.11328125 C115.52227182 61.75908167 116.23833683 64.4164427 116.93359375 67.09765625 C117.45966638 69.10093672 117.98768992 71.10368232 118.51757812 73.10595703 C118.87518514 74.46376634 119.22813621 75.82281135 119.57617188 77.18310547 C120.2233504 80.4098941 120.2233504 80.4098941 121.93359375 83.09765625 C124.26650306 83.26516039 124.26650306 83.26516039 126.93359375 83.09765625 C127.73587402 83.09241943 128.5381543 83.08718262 129.36474609 83.08178711 C132.30874046 82.26009814 132.30874046 82.26009814 133.91259766 78.73266602 C134.557509 77.23941271 135.180248 75.73646385 135.78515625 74.2265625 C136.12487457 73.42029922 136.4645929 72.61403595 136.81460571 71.78334045 C137.87957424 69.23095427 138.9115684 66.66751386 139.93359375 64.09765625 C140.24969604 63.30639343 140.56579834 62.51513062 140.89147949 61.69989014 C142.76478398 56.98138585 144.58335008 52.24333517 146.37863159 47.49465942 C147.97903427 43.26201894 149.59565882 39.03557464 151.2109375 34.80859375 C151.52823318 33.9772139 151.84552887 33.14583405 152.17243958 32.28926086 C156.29483748 21.50619562 160.59880602 10.79693232 164.93359375 0.09765625 C168.23359375 0.09765625 171.53359375 0.09765625 174.93359375 0.09765625 C179.94918734 12.4625772 184.85654674 24.86471593 189.65234375 37.31640625 C190.27697762 38.93616112 190.27697762 38.93616112 190.91423035 40.58863831 C193.03008863 46.07621571 195.14064621 51.5657407 197.2434082 57.05834961 C198.04226739 59.13273181 198.84133145 61.20703513 199.640625 63.28125 C199.99874268 64.22226563 200.35686035 65.16328125 200.72583008 66.1328125 C202.49345278 70.70530872 204.36854794 75.21025271 206.4519043 79.64868164 C206.83082321 80.45600235 207.20974213 81.26332306 207.60014343 82.09510803 C209.13007169 84.39272277 210.39402431 85.10387881 212.93359375 86.09765625 C212.93359375 87.08765625 212.93359375 88.07765625 212.93359375 89.09765625 C200.06359375 89.09765625 187.19359375 89.09765625 173.93359375 89.09765625 C173.93359375 88.10765625 173.93359375 87.11765625 173.93359375 86.09765625 C176.57359375 85.43765625 179.21359375 84.77765625 181.93359375 84.09765625 C181.35429713 78.06807594 179.5556432 72.91307474 177.37109375 67.28515625 C176.72114043 65.592225 176.07386622 63.89826196 175.4296875 62.203125 C174.99934204 61.09167114 174.99934204 61.09167114 174.56030273 59.95776367 C173.93359375 58.09765625 173.93359375 58.09765625 173.93359375 56.09765625 C165.02359375 56.09765625 156.11359375 56.09765625 146.93359375 56.09765625 C145.94359375 59.39765625 144.95359375 62.69765625 143.93359375 66.09765625 C143.54171875 67.08765625 143.14984375 68.07765625 142.74609375 69.09765625 C141.56853763 73.44555576 141.16113353 77.63630437 141.93359375 82.09765625 C144.8954274 84.89024226 147.95743707 85.52963387 151.93359375 86.09765625 C151.93359375 87.08765625 151.93359375 88.07765625 151.93359375 89.09765625 C150.68485474 89.13524048 150.68485474 89.13524048 149.41088867 89.17358398 C146.31896542 89.26878319 143.22720523 89.36801297 140.13549805 89.4699707 C138.14056056 89.53452631 136.14547446 89.59443455 134.15039062 89.65429688 C132.89677734 89.69619141 131.64316406 89.73808594 130.3515625 89.78125 C129.19422607 89.81790771 128.03688965 89.85456543 126.84448242 89.89233398 C123.86924915 89.98094134 123.86924915 89.98094134 120.93359375 91.09765625 C107.24602796 92.04792784 107.24602796 92.04792784 101.93359375 88.09765625 C97.85764026 83.91154185 96.92109306 80.08208121 95.87109375 74.53515625 C95.53871356 72.92688605 95.20537718 71.31881318 94.87109375 69.7109375 C94.71253906 68.9267041 94.55398438 68.1424707 94.390625 67.33447266 C93.76748088 64.28466152 93.08820331 61.25169714 92.37109375 58.22265625 C92.16355469 57.31773437 91.95601562 56.4128125 91.7421875 55.48046875 C90.80988191 52.7330948 89.93993465 51.20563468 87.93359375 49.09765625 C84.98843723 48.18421729 84.98843723 48.18421729 81.74609375 47.84765625 C80.65941406 47.698125 79.57273437 47.54859375 78.453125 47.39453125 C77.62167969 47.2965625 76.79023437 47.19859375 75.93359375 47.09765625 C76.00232706 52.18847776 76.09022086 57.2784665 76.19604492 62.36865234 C76.22934018 64.10098046 76.25735772 65.83341825 76.2800293 67.56591797 C76.31349182 70.05353632 76.36580033 72.54014529 76.421875 75.02734375 C76.42826492 75.80447723 76.43465485 76.58161072 76.4412384 77.3822937 C76.47326273 79.79733552 76.47326273 79.79733552 76.93359375 83.09765625 C79.85124375 85.04275625 81.5589666 85.55041942 84.93359375 86.09765625 C84.93359375 87.08765625 84.93359375 88.07765625 84.93359375 89.09765625 C59.19359375 89.09765625 33.45359375 89.09765625 6.93359375 89.09765625 C6.93359375 88.10765625 6.93359375 87.11765625 6.93359375 86.09765625 C10.39859375 85.10765625 10.39859375 85.10765625 13.93359375 84.09765625 C13.67904181 76.97020187 11.64644126 71.14427645 9.01708984 64.59570312 C7.82535588 61.60734539 6.93359375 59.34813802 6.93359375 56.09765625 C-6.43140625 56.59265625 -6.43140625 56.59265625 -20.06640625 57.09765625 C-21.58234375 61.30515625 -21.58234375 61.30515625 -23.12890625 65.59765625 C-23.61242554 66.89799805 -23.61242554 66.89799805 -24.10571289 68.22460938 C-25.98916959 73.66474749 -26.20042254 77.44701509 -25.06640625 83.09765625 C-22.09640625 84.08765625 -19.12640625 85.07765625 -16.06640625 86.09765625 C-16.06640625 87.08765625 -16.06640625 88.07765625 -16.06640625 89.09765625 C-24.31640625 89.09765625 -32.56640625 89.09765625 -41.06640625 89.09765625 C-40.06640625 85.09765625 -40.06640625 85.09765625 -37.81640625 83.53515625 C-30.10347291 76.69869261 -27.15551526 62.85019912 -23.47756958 53.33935547 C-22.42673168 50.62221233 -21.37199209 47.90661315 -20.31616211 45.19140625 C-18.90045665 41.55012041 -17.48596777 37.90836686 -16.07275391 34.26611328 C-13.26814704 27.03936584 -10.45323485 19.81671687 -7.62890625 12.59765625 C-7.17499512 11.43049072 -6.72108398 10.2633252 -6.25341797 9.06079102 C-5.63684326 7.48575806 -5.63684326 7.48575806 -5.0078125 5.87890625 C-4.65404541 4.97205078 -4.30027832 4.06519531 -3.93579102 3.13085938 C-2.65061813 0.12526551 -2.65061813 0.12526551 0 0 Z M76.93359375 5.09765625 C75.32057602 8.3236917 75.81305776 11.84475663 75.8359375 15.38671875 C75.83735245 16.20514252 75.8387674 17.02356628 75.84022522 17.86679077 C75.84583085 20.4854495 75.85838427 23.10402329 75.87109375 25.72265625 C75.87610803 27.49609252 75.88067106 29.26953012 75.88476562 31.04296875 C75.89580211 35.39456407 75.9130705 39.74609575 75.93359375 44.09765625 C77.52980025 44.13156198 79.1262157 44.15572186 80.72265625 44.17578125 C82.05611084 44.19753418 82.05611084 44.19753418 83.41650391 44.21972656 C87.8996574 44.00230884 90.73659468 42.02865553 94.18359375 39.34765625 C99.09909773 33.02772256 98.54601573 24.72937631 97.93359375 17.09765625 C96.88283841 12.23503665 95.12764057 7.96726723 90.93359375 5.09765625 C85.99345931 3.31809563 81.63680733 2.15814776 76.93359375 5.09765625 Z M-7.06640625 21.09765625 C-8.77752477 25.49339534 -10.48646524 29.88997234 -12.19335938 34.28735352 C-12.77478645 35.78433311 -13.35681653 37.28107864 -13.93945312 38.77758789 C-14.77501123 40.92403436 -15.60842352 43.07130301 -16.44140625 45.21875 C-16.7038916 45.89167587 -16.96637695 46.56460175 -17.23681641 47.25791931 C-18.51913326 50.09676334 -18.51913326 50.09676334 -19.06640625 53.09765625 C-11.14640625 53.09765625 -3.22640625 53.09765625 4.93359375 53.09765625 C2.68926086 44.61008524 2.68926086 44.61008524 -0.109375 36.4296875 C-0.46064453 35.51767578 -0.81191406 34.60566406 -1.17382812 33.66601562 C-1.53025391 32.75658203 -1.88667969 31.84714844 -2.25390625 30.91015625 C-2.62193359 29.95818359 -2.98996094 29.00621094 -3.36914062 28.02539062 C-4.26341123 25.71422375 -5.16252447 23.40507718 -6.06640625 21.09765625 C-6.39640625 21.09765625 -6.72640625 21.09765625 -7.06640625 21.09765625 Z M159.93359375 22.09765625 C158.36279717 26.18947501 156.79633044 30.28291641 155.23388672 34.37792969 C154.70155165 35.77128993 154.16802798 37.16419665 153.63330078 38.55664062 C152.86569619 40.55611531 152.10235587 42.55717242 151.33984375 44.55859375 C150.87900391 45.76306152 150.41816406 46.9675293 149.94335938 48.20849609 C148.82361671 50.90223546 148.82361671 50.90223546 148.93359375 53.09765625 C156.85359375 53.09765625 164.77359375 53.09765625 172.93359375 53.09765625 C171.47673708 48.86797567 170.01817013 44.63889826 168.55859375 40.41015625 C168.14609375 39.21197266 167.73359375 38.01378906 167.30859375 36.77929688 C166.70917969 35.04389648 166.70917969 35.04389648 166.09765625 33.2734375 C165.7310791 32.21036377 165.36450195 31.14729004 164.98681641 30.05200195 C164.03113289 27.37125873 163.01097104 24.73148177 161.93359375 22.09765625 C161.27359375 22.09765625 160.61359375 22.09765625 159.93359375 22.09765625 Z " fill="#FFFFFF" transform="translate(795.06640625,137.90234375)"/>
<path d="M0 0 C3.3 0 6.6 0 10 0 C10.50748779 1.31154053 11.01497559 2.62308105 11.5378418 3.97436523 C16.09622505 15.75244077 20.66141155 27.52785122 25.23495483 39.30004883 C27.53346923 45.21754102 29.82643 51.13710011 32.11030579 57.06025696 C33.29624587 60.1318485 34.48847755 63.20096512 35.68276978 66.26931763 C36.22511433 67.66672724 36.76467278 69.06522154 37.30136108 70.46481323 C38.03735425 72.38300611 38.78400419 74.29710011 39.53125 76.2109375 C39.93923828 77.26587402 40.34722656 78.32081055 40.76757812 79.40771484 C41.95061785 81.89612923 42.79324648 83.37248484 45 85 C48.72986522 85.26641894 51.44646071 85.1845131 55 84 C56.48578609 81.02842783 56.13555011 78.34319708 56.14526367 75.02758789 C56.14862228 74.31035049 56.1519809 73.5931131 56.15544128 72.85414124 C56.16496066 70.47696208 56.16689486 68.09985329 56.16796875 65.72265625 C56.17118055 64.07360301 56.17454457 62.42455007 56.17805481 60.77549744 C56.18404848 57.31622659 56.18589446 53.85698075 56.18530273 50.39770508 C56.18520108 45.96106261 56.19885589 41.52458005 56.21607494 37.0879755 C56.2271832 33.68138388 56.22922231 30.27483107 56.22869301 26.86822319 C56.2298748 25.23232916 56.2343077 23.59643419 56.24202538 21.96055794 C56.25180204 19.67419294 56.24895662 17.38817704 56.24291992 15.10180664 C56.24434494 13.79989883 56.24576996 12.49799103 56.24723816 11.15663147 C56.24580163 7.83999622 56.24580163 7.83999622 54 5 C50.94570927 3.78715124 50.94570927 3.78715124 48 3 C48 2.01 48 1.02 48 0 C54.57951259 -0.07686265 61.15890694 -0.12893606 67.73876953 -0.16479492 C69.97123542 -0.17976387 72.2036725 -0.20014629 74.43603516 -0.22631836 C110.50679022 -0.63823249 110.50679022 -0.63823249 124.34765625 10.96875 C134.1853666 21.11906049 136.34447064 33.47954795 136.2109375 47.11328125 C135.55828755 59.13896089 131.11469892 70.00063375 122.24609375 78.3359375 C112.28515086 85.71569693 101.21254464 89.33704681 88.921875 89.22705078 C88.05263901 89.22734283 87.18340302 89.22763489 86.28782654 89.22793579 C83.44177943 89.22655299 80.59600084 89.21104162 77.75 89.1953125 C75.76603336 89.19157863 73.78206486 89.18873343 71.7980957 89.18673706 C66.59656614 89.17913003 61.39514968 89.15950687 56.19366455 89.1373291 C50.87782318 89.11680736 45.56196339 89.10772185 40.24609375 89.09765625 C29.83067969 89.07625808 19.41534928 89.04215773 9 89 C9 88.01 9 87.02 9 86 C10.7015625 85.5978125 10.7015625 85.5978125 12.4375 85.1875 C13.613125 84.795625 14.78875 84.40375 16 84 C17.21944031 80.34167906 16.64378703 79.30684877 15.34765625 75.74609375 C14.80141602 74.21758789 14.80141602 74.21758789 14.24414062 72.65820312 C13.85419922 71.59537109 13.46425781 70.53253906 13.0625 69.4375 C12.30079848 67.33296575 11.54155569 65.22753945 10.78515625 63.12109375 C10.27287476 61.72008423 10.27287476 61.72008423 9.75024414 60.29077148 C9 58 9 58 9 56 C0.09 56 -8.82 56 -18 56 C-23.15698507 69.75266318 -23.15698507 69.75266318 -23 84 C-19.7 84.66 -16.4 85.32 -13 86 C-13 86.99 -13 87.98 -13 89 C-21.58 89 -30.16 89 -39 89 C-39 88.01 -39 87.02 -39 86 C-37.64233398 84.79003906 -37.64233398 84.79003906 -35.80859375 83.515625 C-30.91232268 79.49048472 -29.24931123 74.56752896 -27.0625 68.75 C-26.39130127 67.03876953 -26.39130127 67.03876953 -25.70654297 65.29296875 C-24.40850331 61.97641788 -23.14013812 58.64918841 -21.87860107 55.31860352 C-20.92881187 52.81213653 -19.97476177 50.30731874 -19.02001953 47.80273438 C-18.31671967 45.95703586 -17.61343215 44.11133265 -16.91015625 42.265625 C-16.55653519 41.33764099 -16.20291412 40.40965698 -15.83857727 39.45355225 C-14.07323242 34.81722016 -12.31454099 30.17859225 -10.57055664 25.53417969 C-7.31038473 16.87520782 -3.9795774 8.35864906 0 0 Z M79 5 C77.82350169 8.52949493 77.85850012 11.3439657 77.83886719 15.07006836 C77.83390228 15.78584549 77.82893738 16.50162262 77.82382202 17.23908997 C77.80922133 19.60601768 77.80240263 21.97287841 77.796875 24.33984375 C77.79112271 25.98507184 77.78536498 27.6302999 77.77960205 29.27552795 C77.76909864 32.72462272 77.76325136 36.17369422 77.75976562 39.62280273 C77.75427611 44.04257152 77.73023574 48.46203298 77.70179367 52.88170528 C77.68317373 56.27975872 77.67796209 59.67773794 77.67642975 63.07583809 C77.67340224 64.70533494 77.66537039 66.33483046 77.65224457 67.96427727 C77.63519384 70.2432691 77.63706132 72.52150741 77.64355469 74.80053711 C77.63990906 76.0972081 77.63626343 77.39387909 77.63250732 78.72984314 C78.02125014 82.18909574 78.50212594 83.61546692 81 86 C87.84671941 87.18951213 96.03416913 86.8896166 102 83 C109.73106814 76.50972057 112.57454754 67.72613712 114 58 C115.82070827 32.3084494 115.82070827 32.3084494 105.7109375 9.515625 C100.55571476 4.948898 94.31693034 2.87086413 87.5 2.8125 C86.37078125 2.79123047 86.37078125 2.79123047 85.21875 2.76953125 C82.68543335 3.03267506 81.12357529 3.59825403 79 5 Z M-5 21 C-6.71111852 25.39573909 -8.42005899 29.79231609 -10.12695312 34.18969727 C-10.7083802 35.68667686 -11.29041028 37.18342239 -11.87304688 38.67993164 C-12.70860498 40.82637811 -13.54201727 42.97364676 -14.375 45.12109375 C-14.63748535 45.79401962 -14.8999707 46.4669455 -15.17041016 47.16026306 C-16.45272701 49.99910709 -16.45272701 49.99910709 -17 53 C-9.08 53 -1.16 53 7 53 C6.26601159 48.59606951 5.52701111 45.3119355 4.00390625 41.234375 C3.61009766 40.17992187 3.21628906 39.12546875 2.81054688 38.0390625 C2.39869141 36.95367187 1.98683594 35.86828125 1.5625 34.75 C1.15451172 33.64914063 0.74652344 32.54828125 0.32617188 31.4140625 C-0.06892578 30.36476562 -0.46402344 29.31546875 -0.87109375 28.234375 C-1.23130615 27.27756836 -1.59151855 26.32076172 -1.96264648 25.33496094 C-2.89028041 22.87030965 -2.89028041 22.87030965 -5 21 Z " fill="#FFFFFF" transform="translate(155,138)"/>
<path d="M0 0 C3.46679688 0.04882812 3.46679688 0.04882812 6.93359375 0.09765625 C9.85747639 6.52654304 12.54571194 13.02525371 15.12890625 19.59765625 C15.51849014 20.58406097 15.90807404 21.5704657 16.3094635 22.58676147 C17.56095662 25.75635952 18.80985354 28.92697274 20.05859375 32.09765625 C21.76477691 36.42351199 23.47209845 40.74891781 25.1796875 45.07421875 C25.59456924 46.12558014 26.00945099 47.17694153 26.43690491 48.26016235 C28.74166765 54.09628698 31.05926584 59.92681866 33.40625 65.74609375 C33.87853027 66.91785156 34.35081055 68.08960938 34.83740234 69.296875 C35.6694611 71.35534215 36.50425341 73.4127073 37.34228516 75.46875 C37.69597168 76.34402344 38.0496582 77.21929687 38.4140625 78.12109375 C38.71207764 78.85247559 39.01009277 79.58385742 39.31713867 80.33740234 C39.93359375 82.09765625 39.93359375 82.09765625 39.93359375 84.09765625 C44.40613872 85.58850457 48.46104878 85.58850457 52.93359375 84.09765625 C54.09418692 80.61587673 54.06774431 77.88565686 54.07885742 74.21118164 C54.08221603 73.51491165 54.08557465 72.81864166 54.08903503 72.10127258 C54.09853515 69.79926775 54.10048762 67.49733572 54.1015625 65.1953125 C54.10477554 63.59492462 54.10813964 61.99453704 54.11164856 60.39414978 C54.11763733 57.03920816 54.1194887 53.68429229 54.11889648 50.3293457 C54.11879483 46.03071178 54.13245144 41.7322429 54.14966869 37.43364811 C54.16078731 34.12824241 54.16281574 30.82287664 54.16228676 27.51745415 C54.16346691 25.93262602 54.16789069 24.34779686 54.17561913 22.76298714 C54.18541708 20.54638222 54.18254198 18.33013609 54.17651367 16.11352539 C54.17793869 14.85238419 54.17936371 13.59124298 54.18083191 12.29188538 C53.94521869 9.24784628 53.73665609 7.53814628 51.93359375 5.09765625 C48.38770874 3.79844879 48.38770874 3.79844879 44.93359375 3.09765625 C44.93359375 2.10765625 44.93359375 1.11765625 44.93359375 0.09765625 C58.46359375 0.09765625 71.99359375 0.09765625 85.93359375 0.09765625 C85.93359375 1.08765625 85.93359375 2.07765625 85.93359375 3.09765625 C82.96359375 3.75765625 79.99359375 4.41765625 76.93359375 5.09765625 C76.93359375 31.16765625 76.93359375 57.23765625 76.93359375 84.09765625 C83.28345931 86.2142781 90.93345859 85.97886362 97.08984375 83.25390625 C104.53922162 78.5822625 107.65726746 71.2850879 109.93359375 63.09765625 C110.28674857 61.43507676 110.62636682 59.76933221 110.93359375 58.09765625 C112.25359375 58.09765625 113.57359375 58.09765625 114.93359375 58.09765625 C115.26359375 68.32765625 115.59359375 78.55765625 115.93359375 89.09765625 C79.96359375 89.09765625 43.99359375 89.09765625 6.93359375 89.09765625 C6.93359375 88.10765625 6.93359375 87.11765625 6.93359375 86.09765625 C10.39859375 85.10765625 10.39859375 85.10765625 13.93359375 84.09765625 C14.46873191 78.23980463 12.5486405 73.74677036 10.43359375 68.41015625 C9.77300957 66.72043802 9.11656875 65.02909245 8.46484375 63.3359375 C8.17158203 62.59384033 7.87832031 61.85174316 7.57617188 61.0871582 C6.93359375 59.09765625 6.93359375 59.09765625 6.93359375 56.09765625 C-6.43140625 56.59265625 -6.43140625 56.59265625 -20.06640625 57.09765625 C-21.05640625 59.75828125 -22.04640625 62.41890625 -23.06640625 65.16015625 C-23.37964844 65.98394775 -23.69289063 66.80773926 -24.015625 67.65649414 C-25.68555233 72.26812215 -26.56325035 76.12300471 -26.06640625 81.09765625 C-23.86692493 84.39687822 -23.5631648 84.52575526 -19.94140625 85.28515625 C-18.02328125 85.68734375 -18.02328125 85.68734375 -16.06640625 86.09765625 C-16.06640625 87.08765625 -16.06640625 88.07765625 -16.06640625 89.09765625 C-24.64640625 89.09765625 -33.22640625 89.09765625 -42.06640625 89.09765625 C-42.06640625 88.10765625 -42.06640625 87.11765625 -42.06640625 86.09765625 C-41.20015625 85.62328125 -40.33390625 85.14890625 -39.44140625 84.66015625 C-29.06129589 78.01790681 -24.8552591 57.00244043 -20.69140625 46.09765625 C-19.06078655 41.84681273 -17.42714874 37.59713219 -15.79296875 33.34765625 C-15.39732727 32.31809814 -15.00168579 31.28854004 -14.59405518 30.2277832 C-11.94142877 23.33654764 -9.25706546 16.45873297 -6.52734375 9.59765625 C-6.19127106 8.74848633 -5.85519836 7.89931641 -5.50894165 7.02441406 C-2.75101781 0.13001029 -2.75101781 0.13001029 0 0 Z M-7.06640625 21.09765625 C-8.77752477 25.49339534 -10.48646524 29.88997234 -12.19335938 34.28735352 C-12.77478645 35.78433311 -13.35681653 37.28107864 -13.93945312 38.77758789 C-14.77501123 40.92403436 -15.60842352 43.07130301 -16.44140625 45.21875 C-16.7038916 45.89167587 -16.96637695 46.56460175 -17.23681641 47.25791931 C-18.51913326 50.09676334 -18.51913326 50.09676334 -19.06640625 53.09765625 C-11.14640625 53.09765625 -3.22640625 53.09765625 4.93359375 53.09765625 C2.56668227 45.13095093 2.56668227 45.13095093 -0.109375 37.30859375 C-0.46064453 36.34824219 -0.81191406 35.38789063 -1.17382812 34.3984375 C-1.7084668 32.95017578 -1.7084668 32.95017578 -2.25390625 31.47265625 C-2.62193359 30.46847656 -2.98996094 29.46429688 -3.36914062 28.4296875 C-4.26563256 25.9847095 -5.16475553 23.54073544 -6.06640625 21.09765625 C-6.39640625 21.09765625 -6.72640625 21.09765625 -7.06640625 21.09765625 Z " fill="#FFFFFF" transform="translate(445.06640625,137.90234375)"/>
<path d="M0 0 C11.22 0 22.44 0 34 0 C34 1.32 34 2.64 34 4 C33.01 4.66 32.02 5.32 31 6 C31.55270318 12.68687479 33.32646324 18.44481566 35.59765625 24.73828125 C35.95137802 25.74086472 36.30509979 26.74344818 36.66954041 27.77641296 C37.79292589 30.95786335 38.9268752 34.13539994 40.0625 37.3125 C41.20048817 40.50785163 42.33609717 43.70398592 43.46617126 46.90214539 C44.16794838 48.88712973 44.87447388 50.87044298 45.5861969 52.85188293 C45.90330124 53.7467894 46.22040558 54.64169586 46.54711914 55.5637207 C46.96895226 56.74331108 46.96895226 56.74331108 47.39930725 57.94673157 C48 60 48 60 48 63 C48.66 63 49.32 63 50 63 C50.12165527 62.30181152 50.24331055 61.60362305 50.36865234 60.88427734 C51.0528123 57.75872987 52.02685289 54.86505375 53.1015625 51.8515625 C53.50890625 50.68109375 53.91625 49.510625 54.3359375 48.3046875 C55.19373509 45.8560653 56.06090097 43.41070445 56.9375 40.96875 C57.34226562 39.79570312 57.74703125 38.62265625 58.1640625 37.4140625 C58.53998535 36.3513916 58.9159082 35.2887207 59.30322266 34.19384766 C60.74162121 27.60059962 58.40076873 21.49867571 56.25 15.3125 C56.01023437 14.56677734 55.77046875 13.82105469 55.5234375 13.05273438 C53.85946271 8.24521958 52.20742417 6.05539136 48 3 C48 2.01 48 1.02 48 0 C60.21 0 72.42 0 85 0 C85 0.99 85 1.98 85 3 C82.36 3.99 79.72 4.98 77 6 C77.6360877 12.44384494 79.5580066 18.27612725 81.59765625 24.40234375 C82.12823891 26.0188961 82.12823891 26.0188961 82.66954041 27.66810608 C83.79506255 31.09306471 84.92865641 34.51528832 86.0625 37.9375 C86.82931111 40.26609991 87.59559306 42.59487415 88.36132812 44.92382812 C90.23476114 50.6179188 92.11481965 56.30978852 94 62 C96.67206425 54.0950007 99.31759693 46.18169714 101.92724609 38.25585938 C102.55363204 36.3547481 103.18280056 34.45454144 103.81884766 32.55664062 C106.49116401 24.53384405 108.39202542 16.49010099 107 8 C104.61950453 4.79333257 101.76843804 4.08865988 98 3 C98 2.01 98 1.02 98 0 C106.58 0 115.16 0 124 0 C123 4 123 4 120.6875 5.75 C113.19453055 12.02318372 111.34312345 23.92565513 108.578125 32.96875 C108.06878184 34.61660169 107.55882331 36.26426328 107.04827881 37.91174316 C105.71385624 42.22359037 104.38774738 46.53794986 103.06341553 50.85290527 C101.70749285 55.26547873 100.34363749 59.67559833 98.98046875 64.0859375 C96.31258945 72.72158923 93.65349592 81.35991872 91 90 C87.7 90 84.4 90 81 90 C80.66790527 88.998479 80.33581055 87.99695801 79.99365234 86.96508789 C78.73160707 83.16051019 77.46740742 79.35665097 76.20263672 75.55297852 C75.66105586 73.92328343 75.12001852 72.2934076 74.57958984 70.66333008 C70.84377539 59.3967537 66.99095924 48.17880395 63 37 C62.78924332 37.63449066 62.57848663 38.26898132 62.36134338 38.92269897 C60.1732802 45.50896189 57.98312915 52.0945278 55.79174805 58.6796875 C54.97350016 61.13946902 54.15579014 63.59942953 53.33862305 66.05957031 C52.16595568 69.58966176 50.99137416 73.11911121 49.81640625 76.6484375 C49.44971329 77.75367767 49.08302032 78.85891785 48.70521545 79.99765015 C48.3649382 81.01855743 48.02466095 82.03946472 47.67407227 83.09130859 C47.3742897 83.99287689 47.07450714 84.89444519 46.76564026 85.82333374 C46 88 46 88 45 90 C41.7 90 38.4 90 35 90 C34.47680176 88.50557373 33.95360352 87.01114746 33.41455078 85.47143555 C21.86595113 52.36666829 21.86595113 52.36666829 10 19.375 C9.43369873 17.81011841 9.43369873 17.81011841 8.85595703 16.21362305 C8.51161621 15.28461182 8.16727539 14.35560059 7.8125 13.3984375 C7.38904297 12.24867432 7.38904297 12.24867432 6.95703125 11.07568359 C5.88112178 8.7421677 4.69871602 6.92897002 3 5 C2.01 4.67 1.02 4.34 0 4 C0 2.68 0 1.36 0 0 Z " fill="#FFFFFF" transform="translate(292,138)"/>
<path d="M0 0 C1.76417152 1.24448592 1.76417152 1.24448592 4.65625 0.98828125 C4.98625 -0.99171875 5.31625 -2.97171875 5.65625 -5.01171875 C6.97625 -5.01171875 8.29625 -5.01171875 9.65625 -5.01171875 C9.65625 5.21828125 9.65625 15.44828125 9.65625 25.98828125 C8.33625 25.98828125 7.01625 25.98828125 5.65625 25.98828125 C5.41390625 24.97507813 5.1715625 23.961875 4.921875 22.91796875 C4.58394604 21.56625292 4.24536976 20.21469882 3.90625 18.86328125 C3.74898437 18.198125 3.59171875 17.53296875 3.4296875 16.84765625 C1.71815337 10.13317619 -1.37959855 4.89397429 -7.23046875 1.03515625 C-12.9922202 -1.81909401 -19.03183349 -2.76341676 -25.21875 -0.88671875 C-31.99246128 1.92159927 -35.18278622 5.52145034 -38.20703125 12.1328125 C-44.28890673 27.41065091 -45.42302946 48.55814222 -39.34375 63.98828125 C-38.99183594 64.88546875 -38.63992188 65.78265625 -38.27734375 66.70703125 C-35.73518127 72.41221436 -32.64071878 76.58667334 -27.34375 79.98828125 C-20.72637023 82.19407451 -14.19918369 81.77918755 -7.90625 78.80078125 C-1.24537451 75.02769039 1.59162996 70.29385986 3.65625 62.98828125 C4.43178423 59.33700831 5.08005331 55.67594005 5.65625 51.98828125 C6.97625 51.98828125 8.29625 51.98828125 9.65625 51.98828125 C9.65625 62.54828125 9.65625 73.10828125 9.65625 83.98828125 C8.33625 83.98828125 7.01625 83.98828125 5.65625 83.98828125 C5.16125 80.52328125 5.16125 80.52328125 4.65625 76.98828125 C3.61984375 77.55417969 2.5834375 78.12007813 1.515625 78.703125 C0.14596023 79.44424498 -1.22383849 80.18511745 -2.59375 80.92578125 C-3.27566406 81.29896484 -3.95757813 81.67214844 -4.66015625 82.05664062 C-5.65595703 82.59321289 -5.65595703 82.59321289 -6.671875 83.140625 C-7.2793457 83.47054443 -7.88681641 83.80046387 -8.51269531 84.14038086 C-18.1121867 88.58558534 -31.90835919 86.65819618 -41.4765625 83.24609375 C-53.08712206 78.15263302 -59.77242348 70.50789096 -64.3984375 58.8203125 C-68.64571044 46.09604439 -68.06457565 29.0731023 -62.34375 16.98828125 C-56.74147342 6.85773966 -48.50307914 -1.4301773 -37.34375 -5.01171875 C-24.33544714 -8.63903397 -11.23046657 -8.06594951 0 0 Z " fill="#FFFFFF" transform="translate(739.34375,143.01171875)"/>
<path d="M0 0 C3.3 0 6.6 0 10 0 C14.84121412 11.33475567 19.27218644 22.83090296 23.75 34.3125 C24.51810385 36.27934582 25.28633234 38.24614297 26.0546875 40.21289062 C26.62503723 41.6737056 26.62503723 41.6737056 27.20690918 43.16403198 C27.97371458 45.12634638 28.74169525 47.08820193 29.51086426 49.04959106 C31.51944525 54.17722473 33.50100638 59.31318842 35.44335938 64.46630859 C35.84315002 65.51610397 36.24294067 66.56589935 36.65484619 67.64750671 C37.41826117 69.65349147 38.17339615 71.66265351 38.91888428 73.67536926 C40.96628201 79.02497616 42.62168181 83.3108409 48 86 C48 86.99 48 87.98 48 89 C35.13 89 22.26 89 9 89 C9 88.01 9 87.02 9 86 C12.96 85.01 12.96 85.01 17 84 C16.46661588 77.50924109 14.78371233 72.05145609 12.4375 66 C11.303125 63.03 10.16875 60.06 9 57 C0.09 56.67 -8.82 56.34 -18 56 C-18.33 57.98 -18.66 59.96 -19 62 C-19.64808136 63.80629905 -20.33588732 65.59883567 -21.0625 67.375 C-22.88808916 72.24766344 -23.5544469 75.8251623 -23 81 C-20.80051868 84.29922197 -20.49675855 84.42809901 -16.875 85.1875 C-14.956875 85.5896875 -14.956875 85.5896875 -13 86 C-13 86.99 -13 87.98 -13 89 C-21.58 89 -30.16 89 -39 89 C-39 88.01 -39 87.02 -39 86 C-38.113125 85.484375 -37.22625 84.96875 -36.3125 84.4375 C-29.12125674 79.97759294 -26.54944333 68.65854242 -23.671875 61.11328125 C-23.08191742 59.5849189 -23.08191742 59.5849189 -22.4800415 58.02568054 C-21.23203706 54.78972421 -19.99079647 51.55122608 -18.75 48.3125 C-17.93406361 46.19187645 -17.11766049 44.07143241 -16.30078125 41.95117188 C-15.08350469 38.79159368 -13.86653428 35.63190317 -12.65148926 32.47146606 C-8.48111357 21.62931095 -4.24537827 10.81296571 0 0 Z M-4 21 C-5.63076793 25.01851766 -7.25357494 29.04020451 -8.875 33.0625 C-9.33519531 34.19623047 -9.79539062 35.32996094 -10.26953125 36.49804688 C-10.71425781 37.60341797 -11.15898438 38.70878906 -11.6171875 39.84765625 C-12.02565918 40.85836182 -12.43413086 41.86906738 -12.85498047 42.91040039 C-14.07918006 46.21365109 -15.03221202 49.61274208 -16 53 C-8.08 53 -0.16 53 8 53 C5.63308852 45.03329468 5.63308852 45.03329468 2.95703125 37.2109375 C2.60576172 36.25058594 2.25449219 35.29023438 1.89257812 34.30078125 C1.35793945 32.85251953 1.35793945 32.85251953 0.8125 31.375 C0.44447266 30.37082031 0.07644531 29.36664063 -0.30273438 28.33203125 C-1.19922631 25.88705325 -2.09834928 23.44307919 -3 21 C-3.33 21 -3.66 21 -4 21 Z " fill="#FFFFFF" transform="translate(622,138)"/>
<path d="M0 0 C13.2 0 26.4 0 40 0 C39.67 1.32 39.34 2.64 39 4 C36.69 4.66 34.38 5.32 32 6 C31.27995932 11.19208463 30.8696006 16.19879263 30.84228516 21.45068359 C30.83720444 22.14779953 30.83212372 22.84491547 30.82688904 23.56315613 C30.8162731 25.06192184 30.80761933 26.56070254 30.80076981 28.0594902 C30.78885192 30.4405076 30.76936923 32.82135389 30.74765015 35.20230103 C30.68645556 41.9668399 30.63206485 48.73135574 30.59863281 55.49609375 C30.57756888 59.64871518 30.54218177 63.80101366 30.49787521 67.95344925 C30.48381769 69.52490034 30.47501622 71.09640844 30.47182083 72.66791916 C30.44691609 83.74035261 30.18890092 94.21734641 22.859375 103.1796875 C15.75744172 110.1324205 7.21082382 113.05629474 -2.5625 113.125 C-3.696875 113.08375 -4.83125 113.0425 -6 113 C-5.73828125 111.0859375 -5.73828125 111.0859375 -5 109 C-3.29296875 108.1640625 -3.29296875 108.1640625 -1.1875 107.625 C1.95219436 106.55784092 2.99880726 106.00125551 5.375 103.5 C10.09790762 93.32758358 9.2957152 81.78832257 9.265625 70.8203125 C9.26697487 69.0768122 9.26891808 67.33331226 9.27142334 65.58981323 C9.27435477 61.95729954 9.27013807 58.32488491 9.26074219 54.69238281 C9.24929753 50.04207121 9.25595119 45.39198924 9.26788712 40.74168587 C9.27511589 37.15058664 9.27281398 33.55954188 9.26763153 29.96844101 C9.2663005 28.25326383 9.26792356 26.53808166 9.27259064 24.82291031 C9.27767828 22.43014652 9.26991665 20.03775558 9.25878906 17.64501953 C9.26283752 16.94156906 9.26688599 16.23811859 9.27105713 15.51335144 C9.23741555 11.60200718 8.97002263 8.42481545 7 5 C3.46485707 3.62032476 3.46485707 3.62032476 0 3 C0 2.01 0 1.02 0 0 Z " fill="#FFFFFF" transform="translate(77,138)"/>
</svg>
