<?xml version="1.0" encoding="UTF-8"?>
<svg version="1.1" xmlns="http://www.w3.org/2000/svg" width="1080" height="351">
<path d="M0 0 C7.74639461 0.06161112 15.49246418 0.13899775 23.23849106 0.23571491 C26.83654222 0.2801619 30.43448682 0.31947174 34.03271484 0.34643555 C37.51482574 0.37272837 40.99652068 0.41330612 44.47837067 0.46318626 C46.43215939 0.48762804 48.3861099 0.49783192 50.34002686 0.50764465 C62.12274262 0.69875961 73.61550534 2.29990182 83 10 C88.8217149 17.08263932 89.80557526 24.00440957 89 33 C86.84346854 40.73538458 82.50431055 46.75417441 75.5 50.75 C67.2596463 55 67.2596463 55 62 55 C62 55.66 62 56.32 62 57 C63.155 57.061875 64.31 57.12375 65.5 57.1875 C71.96151854 58.02235107 76.24144124 61.01647741 80.50390625 65.82421875 C84.17495389 71.16036122 85.27523854 77.47432334 86.75 83.6875 C87.05292969 84.91017578 87.35585938 86.13285156 87.66796875 87.39257812 C88.45860611 90.59202398 89.23132073 93.7952286 90 97 C90.33136764 98.33382322 90.66378819 99.66738959 91 101 C96.3086849 100.41825155 96.3086849 100.41825155 101 98 C101.99 98 102.98 98 104 98 C109.33757641 87.9910162 113.56270662 77.78238933 117.51092529 67.15997314 C119.222758 62.55624707 120.96053747 57.96230651 122.6953125 53.3671875 C123.04864655 52.42950531 123.40198059 51.49182312 123.76602173 50.52572632 C127.54257674 40.52207506 131.44517492 30.56925035 135.375 20.625 C135.69750732 19.80636475 136.02001465 18.98772949 136.35229492 18.14428711 C137.26132342 15.83750763 138.17303968 13.53181306 139.0859375 11.2265625 C139.3529245 10.54933136 139.6199115 9.87210022 139.89498901 9.17434692 C141.14573404 6.0289535 142.48338133 3.03323733 144 0 C147.63 0 151.26 0 155 0 C159.24320085 8.93987354 162.76943083 18.07214494 166.24551392 27.32778931 C172.10603757 42.91840247 178.08210994 58.46331918 184.18859863 73.95922852 C184.93446929 75.85278567 185.67870695 77.74698692 186.42126465 79.6418457 C187.45981078 82.2904255 188.50434026 84.93656237 189.55078125 87.58203125 C189.85637466 88.36351028 190.16196808 89.14498932 190.4768219 89.95014954 C193.16779968 97.36686645 193.16779968 97.36686645 198.75 102.5 C203.04693459 103.16106686 205.24667363 102.09320124 209 100 C212.57114142 94.64328787 212.14934417 88.39432817 212.14526367 82.12451172 C212.14862228 81.37074249 212.1519809 80.61697327 212.15544128 79.84036255 C212.16487425 77.3701204 212.16689005 74.89994649 212.16796875 72.4296875 C212.17118501 70.70289075 212.17454936 68.97609428 212.17805481 67.2492981 C212.18402571 63.63998787 212.18589665 60.03070153 212.18530273 56.42138672 C212.18520085 51.80012252 212.19888922 47.17901106 212.21607494 42.55778313 C212.22719561 38.99585263 212.22922197 35.43395917 212.22869301 31.87201309 C212.22987163 30.16799515 212.23428678 28.46397621 212.24202538 26.75997543 C212.25183318 24.37877406 212.24894494 21.99790606 212.24291992 19.61669922 C212.24853943 18.91631531 212.25415894 18.2159314 212.25994873 17.49432373 C212.23476309 13.57304368 211.86084549 10.48136926 210 7 C207.85401498 5.76365342 207.85401498 5.76365342 205.375 5.1875 C204.55773437 4.95417969 203.74046875 4.72085938 202.8984375 4.48046875 C202.27195312 4.32191406 201.64546875 4.16335937 201 4 C201.33 2.68 201.66 1.36 202 0 C206.16545125 -0.26326588 210.3287512 -0.42182084 214.5 -0.5625 C215.67304687 -0.63791016 216.84609375 -0.71332031 218.0546875 -0.79101562 C226.66134641 -1.0085997 226.66134641 -1.0085997 230.49926758 1.88305664 C232.53627446 4.16377978 234.27658218 6.47674548 236 9 C237.21935832 10.52870861 238.44743453 12.05054023 239.6875 13.5625 C240.3475 14.39652344 241.0075 15.23054687 241.6875 16.08984375 C244.49495227 19.62287068 247.33939515 23.12472164 250.1875 26.625 C250.74123291 27.30618896 251.29496582 27.98737793 251.86547852 28.68920898 C254.68726723 32.15984304 257.51194241 35.62809496 260.33984375 39.09375 C268.37188705 48.9451539 276.38896345 58.81733495 284 69 C284.05070926 61.11632026 284.08573755 53.23268258 284.10986328 45.34887695 C284.11879115 42.66686354 284.13270718 39.98494485 284.15087891 37.30297852 C284.17513719 33.4480519 284.18648559 29.59327027 284.1953125 25.73828125 C284.20563507 24.53915604 284.21595764 23.34003082 284.22659302 22.10456848 C284.22674408 20.98378403 284.22689514 19.86299957 284.22705078 18.70825195 C284.231492 17.72452103 284.23593323 16.7407901 284.24050903 15.72724915 C283.97915278 12.76360316 283.36126514 10.64148235 282 8 C279.39766377 6.53820131 279.39766377 6.53820131 276.375 5.6875 C275.37210938 5.36136719 274.36921875 5.03523437 273.3359375 4.69921875 C272.17964844 4.35310547 272.17964844 4.35310547 271 4 C271 2.68 271 1.36 271 0 C280.9 0 290.8 0 301 0 C301 1.32 301 2.64 301 4 C300.44570312 4.23074219 299.89140625 4.46148437 299.3203125 4.69921875 C298.59585937 5.02535156 297.87140625 5.35148438 297.125 5.6875 C296.40570312 6.00074219 295.68640625 6.31398437 294.9453125 6.63671875 C292.27116562 8.51076948 291.94314883 9.85530016 291 13 C290.69748311 16.09575539 290.68886842 19.17950757 290.68115234 22.28833008 C290.67110672 23.21564941 290.6610611 24.14296875 290.65071106 25.09838867 C290.61988548 28.15543005 290.60284554 31.21238386 290.5859375 34.26953125 C290.56722537 36.39231621 290.54765192 38.51509374 290.5272522 40.63786316 C290.4759299 46.21910214 290.43630458 51.80036524 290.39910889 57.38171387 C290.35906995 63.07940639 290.30797707 68.77699859 290.2578125 74.47460938 C290.16105199 85.64966911 290.0766475 96.82478549 290 108 C288.56575887 108.0756425 287.1303611 108.1295583 285.69482422 108.17431641 C284.89567596 108.20667389 284.09652771 108.23903137 283.27316284 108.27236938 C280.54708071 107.94573141 279.69491893 107.21969934 277.8828125 105.2109375 C276.93490588 103.95337356 276.01681364 102.67294548 275.125 101.375 C274.09777723 99.98819163 273.07043073 98.6014749 272.04296875 97.21484375 C271.53556152 96.50827637 271.0281543 95.80170898 270.50537109 95.07373047 C268.24120109 91.95471328 265.83790727 88.95198495 263.4375 85.9375 C262.52886922 84.78079446 261.62131659 83.62324118 260.71484375 82.46484375 C257.98009613 78.97378134 255.24041787 75.48661214 252.5 72 C251.58331177 70.83335027 250.6666451 69.66668361 249.75 68.5 C249.29625 67.9225 248.8425 67.345 248.375 66.75 C246.3125 64.125 246.3125 64.125 244.25 61.5 C243.79592773 60.92209717 243.34185547 60.34419434 242.87402344 59.7487793 C241.96058321 58.58620425 241.04717158 57.42360672 240.13378906 56.26098633 C237.79299623 53.28152964 235.45165419 50.30250713 233.109375 47.32421875 C232.63048828 46.71513672 232.15160156 46.10605469 231.65820312 45.47851562 C230.76125811 44.3377409 229.8641413 43.1971012 228.96679688 42.05664062 C226.41187408 38.80671564 223.86845902 35.5480495 221.33105469 32.28442383 C220.70575867 31.48023514 220.08046265 30.67604645 219.43621826 29.8474884 C218.72529022 28.93298164 218.72529022 28.93298164 218 28 C217.9535479 36.22365418 217.91806563 44.44725303 217.89637566 52.6710062 C217.88596271 56.49010941 217.87184928 60.30912248 217.84912109 64.12817383 C217.82730354 67.81752845 217.81541267 71.50679667 217.81024551 75.19621086 C217.8065657 76.59993791 217.79938008 78.00366052 217.78853989 79.40735054 C217.77390716 81.38162706 217.77318208 83.35599153 217.77294922 85.33032227 C217.768508 86.45173111 217.76406677 87.57313995 217.75949097 88.72853088 C218.02940895 92.40002853 218.78114843 95.52929007 220 99 C223.54776441 101.93957622 227.58161246 102.87374435 232 104 C232 104.99 232 105.98 232 107 C206.59 107 181.18 107 155 107 C155.33 105.68 155.66 104.36 156 103 C158.64 102.34 161.28 101.68 164 101 C163.54761317 93.17782052 161.29235063 86.69318349 158.4375 79.4375 C156.973125 75.663125 155.50875 71.88875 154 68 C143.44 67.67 132.88 67.34 122 67 C121.67 68.65 121.34 70.3 121 72 C120.19109688 74.23814749 119.35547842 76.46673771 118.5 78.6875 C116.05870265 85.45784206 113.8419999 91.81338425 115.8125 98.9375 C119.25928815 102.18732883 123.46186172 102.95273732 128 104 C128 104.99 128 105.98 128 107 C126.58521362 106.98428955 126.58521362 106.98428955 125.1418457 106.96826172 C121.62879982 106.93409359 118.1159316 106.9090592 114.6027832 106.89013672 C113.08485114 106.88010455 111.56693827 106.86647562 110.04907227 106.84912109 C107.8620936 106.82474965 105.67537136 106.81348905 103.48828125 106.8046875 C102.17384033 106.79421387 100.85939941 106.78374023 99.50512695 106.77294922 C96.15729713 106.9898108 94.00574017 107.595952 91 109 C82.97593543 110.64732451 76.03687563 109.98035408 68.6875 106.375 C61.80839921 100.29579465 60.92212588 91.67862131 59.5 83.0625 C57.77528653 70.17639477 57.77528653 70.17639477 51.29101562 59.30102539 C48.23921668 57.56796523 45.73887695 57.48694385 42.25 57.3125 C41.07953125 57.24675781 39.9090625 57.18101562 38.703125 57.11328125 C37.81109375 57.07589844 36.9190625 57.03851563 36 57 C36.09372232 62.46294432 36.19985824 67.92545526 36.31738281 73.38793945 C36.35560866 75.24529456 36.39047263 77.10272208 36.421875 78.96020508 C36.46766461 81.63388912 36.52563579 84.30707742 36.5859375 86.98046875 C36.59748871 87.80773972 36.60903992 88.63501068 36.62094116 89.48735046 C36.72830538 93.70434811 36.91043112 97.21817463 39 101 C41.14598502 102.23634658 41.14598502 102.23634658 43.625 102.8125 C44.85089844 103.16248047 44.85089844 103.16248047 46.1015625 103.51953125 C46.72804688 103.67808594 47.35453125 103.83664063 48 104 C48 104.99 48 105.98 48 107 C32.16 107 16.32 107 0 107 C0.33 105.68 0.66 104.36 1 103 C4.96 102.01 4.96 102.01 9 101 C10.67179345 95.90506971 11.28935161 91.34687531 11.25878906 85.97265625 C11.2622937 85.20259247 11.26579834 84.43252869 11.26940918 83.63912964 C11.27815527 81.11349259 11.2724027 78.58813952 11.265625 76.0625 C11.2669737 74.29565375 11.26891594 72.52880787 11.27142334 70.76196289 C11.27436496 67.06685843 11.27010798 63.37185096 11.26074219 59.67675781 C11.24934824 54.95254292 11.25591287 50.22855532 11.26788712 45.50434875 C11.27513173 41.85825911 11.27280585 38.21222289 11.26763153 34.56613159 C11.26630223 32.82469658 11.26791741 31.08325664 11.27259064 29.34182739 C11.27769877 26.9035364 11.26988585 24.46560792 11.25878906 22.02734375 C11.26283752 21.31544891 11.26688599 20.60355408 11.27105713 19.87008667 C11.23176123 15.18327869 10.58721486 11.37131179 9 7 C6.88930037 5.53808346 6.88930037 5.53808346 4.375 5.0625 C3.55773437 4.84722656 2.74046875 4.63195312 1.8984375 4.41015625 C0.95871094 4.20712891 0.95871094 4.20712891 0 4 C0 2.68 0 1.36 0 0 Z M37 7 C35.55025525 11.67792589 35.87362002 16.60961386 35.90234375 21.45703125 C35.9037587 22.35999435 35.90517365 23.26295746 35.90663147 24.19328308 C35.91221177 27.06638963 35.92476066 29.93941716 35.9375 32.8125 C35.94251755 34.76497283 35.94708001 36.71744689 35.95117188 38.66992188 C35.96217475 43.44664485 35.97942582 48.22330904 36 53 C38.07140667 53.04579673 40.14310772 53.0783994 42.21484375 53.10546875 C43.94528931 53.13483521 43.94528931 53.13483521 45.71069336 53.16479492 C51.56642166 52.87142176 55.25051003 50.70345076 59.375 46.6875 C64.5570306 38.11721862 64.00085487 26.74212233 62.5703125 17.10546875 C61.04353023 11.57323918 57.90913787 7.95604001 53 5 C47.29929462 3.18109789 41.71751871 2.97623405 37 7 Z M138 25 C136.00408821 30.25026416 134.01031506 35.50133336 132.01855469 40.75317383 C131.34011204 42.54115967 130.66107654 44.32892068 129.98144531 46.11645508 C129.00691757 48.67991764 128.03449691 51.24417068 127.0625 53.80859375 C126.75626709 54.6127623 126.45003418 55.41693085 126.13452148 56.24546814 C124.65584488 59.53759353 124.65584488 59.53759353 124 63 C133.57 63 143.14 63 153 63 C148.60738138 50.20081815 144.20896129 37.48966856 139 25 C138.67 25 138.34 25 138 25 Z " fill="#FFFFFF" transform="translate(767,131)"/>
<path d="M0 0 C7.59877718 0.03832553 15.19714303 0.09806994 22.79552746 0.18390274 C26.32520887 0.22312852 29.85465012 0.25543692 33.38452148 0.27099609 C37.45856182 0.28927607 41.53170919 0.33933343 45.60546875 0.390625 C46.8507988 0.39185364 48.09612885 0.39308228 49.37919617 0.39434814 C60.96343876 0.58466087 72.47764775 2.59412636 81 11 C86.62584858 16.95307915 88.79148071 22.46172765 89.09765625 30.59375 C88.7655481 39.839641 85.07898055 48.48544357 78.375 54.9375 C66.04990934 64.4720041 50.96750382 65.18934103 36 65 C36.11829766 69.50253816 36.24254934 74.00485779 36.37231445 78.50708008 C36.41561833 80.03861018 36.45729667 81.57018715 36.49731445 83.10180664 C36.55512732 85.30369182 36.61878969 87.50534211 36.68359375 89.70703125 C36.70030624 90.39150833 36.71701874 91.07598541 36.73423767 91.78120422 C36.8273555 94.77120104 37.04687437 97.14062311 38 100 C42.32633551 102.43356373 47.14557204 102.59810836 52 103 C52 104.32 52 105.64 52 107 C34.84 107 17.68 107 0 107 C0.33 105.68 0.66 104.36 1 103 C1.84884766 102.83564453 1.84884766 102.83564453 2.71484375 102.66796875 C3.44832031 102.50941406 4.18179688 102.35085937 4.9375 102.1875 C5.66839844 102.03667969 6.39929688 101.88585937 7.15234375 101.73046875 C8.06693359 101.36888672 8.06693359 101.36888672 9 101 C10.27180724 97.18457827 10.13936047 93.60382897 10.12939453 89.62890625 C10.13114685 88.77497284 10.13289917 87.92103943 10.13470459 87.04122925 C10.13911038 84.21496557 10.13618957 81.38876433 10.1328125 78.5625 C10.1334859 76.60099272 10.13445624 74.63948551 10.13571167 72.67797852 C10.13718692 68.56558437 10.13503962 64.45321194 10.13037109 60.34082031 C10.12467392 55.06462374 10.12795384 49.78847803 10.13394356 44.51228333 C10.13755382 40.46146256 10.13640843 36.41065389 10.13381577 32.35983276 C10.13314779 30.41413365 10.13397043 28.46843344 10.13629532 26.5227356 C10.13882943 23.80549197 10.13497046 21.08833119 10.12939453 18.37109375 C10.13141876 17.56372772 10.13344299 16.75636169 10.13552856 15.92453003 C10.12319663 12.68726592 10.03119741 10.09359222 9 7 C6.90280128 5.97718482 6.90280128 5.97718482 4.4375 5.3125 C3.61121094 5.06113281 2.78492188 4.80976563 1.93359375 4.55078125 C1.29550781 4.36902344 0.65742187 4.18726563 0 4 C0 2.68 0 1.36 0 0 Z M37 7 C35.74725277 9.50549445 35.87970376 11.19735632 35.88647461 14.00048828 C35.88655014 15.04141632 35.88662567 16.08234436 35.88670349 17.15481567 C35.89186478 18.28192963 35.89702606 19.40904358 35.90234375 20.5703125 C35.9037587 21.72167694 35.90517365 22.87304138 35.90663147 24.05929565 C35.91224284 27.74788986 35.9247973 31.43642405 35.9375 35.125 C35.94251353 37.62109288 35.94707669 40.1171867 35.95117188 42.61328125 C35.96221597 48.74220809 35.9789652 54.87109976 36 61 C37.44505094 61.01110683 38.89012648 61.01904434 40.33520508 61.02563477 C41.54228874 61.03277245 41.54228874 61.03277245 42.77375793 61.04005432 C48.41388709 60.93857769 53.35450937 59.12563636 57.375 55.125 C63.58495952 46.91405352 63.89885081 34.86338951 63 25 C61.80037315 18.08786436 60.52364286 10.98975758 54.9375 6.25 C48.93274485 3.69478504 42.25526033 2.42283778 37 7 Z " fill="#FFFFFF" transform="translate(568,131)"/>
<path d="M0 0 C7.59877718 0.03832553 15.19714303 0.09806994 22.79552746 0.18390274 C26.32520887 0.22312852 29.85465012 0.25543692 33.38452148 0.27099609 C37.45856182 0.28927607 41.53170919 0.33933343 45.60546875 0.390625 C46.8507988 0.39185364 48.09612885 0.39308228 49.37919617 0.39434814 C62.17979848 0.60464395 73.36446931 3.26657789 82.5234375 12.54296875 C87.73251459 18.39941669 88.87724336 24.35560921 89 32 C88.36868345 41.04887059 84.44159287 49.03490144 77.875 55.3125 C65.79048202 64.60625783 50.61611315 65.18489589 36 65 C36.11829766 69.50253816 36.24254934 74.00485779 36.37231445 78.50708008 C36.41561833 80.03861018 36.45729667 81.57018715 36.49731445 83.10180664 C36.55512732 85.30369182 36.61878969 87.50534211 36.68359375 89.70703125 C36.70030624 90.39150833 36.71701874 91.07598541 36.73423767 91.78120422 C36.8273555 94.77120104 37.04687437 97.14062311 38 100 C42.32633551 102.43356373 47.14557204 102.59810836 52 103 C52 104.32 52 105.64 52 107 C34.84 107 17.68 107 0 107 C0.33 105.68 0.66 104.36 1 103 C3.64 102.67 6.28 102.34 9 102 C10.16236418 97.83682426 10.14020831 93.80925779 10.12939453 89.51538086 C10.13114685 88.66130142 10.13289917 87.80722198 10.13470459 86.92726135 C10.13910298 84.10643477 10.13619244 81.28567096 10.1328125 78.46484375 C10.13348605 76.50476571 10.13445651 74.54468774 10.13571167 72.58460999 C10.13718586 68.47819218 10.13504277 64.37179613 10.13037109 60.26538086 C10.12467022 54.99706004 10.12795685 49.72879011 10.13394356 44.46047115 C10.13755346 40.4139416 10.13640867 36.36742416 10.13381577 32.32089424 C10.13314788 30.37798621 10.1339701 28.43507709 10.13629532 26.49217033 C10.13882925 23.77982536 10.13497089 21.06756339 10.12939453 18.35522461 C10.13141876 17.54942963 10.13344299 16.74363464 10.13552856 15.91342163 C10.12318535 12.67952243 10.03013984 10.09041953 9 7 C6.90280128 5.97718482 6.90280128 5.97718482 4.4375 5.3125 C3.61121094 5.06113281 2.78492188 4.80976563 1.93359375 4.55078125 C1.29550781 4.36902344 0.65742188 4.18726563 0 4 C0 2.68 0 1.36 0 0 Z M37 6 C35.99877829 9.00366514 35.87887989 10.97739593 35.88647461 14.11401367 C35.88655014 15.15486618 35.88662567 16.19571869 35.88670349 17.26811218 C35.89186478 18.39006485 35.89702606 19.51201752 35.90234375 20.66796875 C35.9037587 21.81791824 35.90517365 22.96786774 35.90663147 24.15266418 C35.91223571 27.83096908 35.92478896 31.50921345 35.9375 35.1875 C35.94251445 37.67903558 35.94707745 40.17057211 35.95117188 42.66210938 C35.96220653 48.77476029 35.97894882 54.88737582 36 61 C37.44431538 61.01206065 38.8886598 61.02067753 40.33300781 61.02783203 C41.13732239 61.03299835 41.94163696 61.03816467 42.77032471 61.04348755 C48.46186937 60.93247976 52.74572247 59.17247682 56.875 55.3125 C64.1662377 43.94674711 64.36449308 30.43465876 61.69140625 17.48046875 C60.39497316 12.8294235 58.55753699 9.37429734 54.875 6.125 C49.30167546 3.94413387 42.29668576 2.58278338 37 6 Z " fill="#FFFFFF" transform="translate(12,131)"/>
<path d="M0 0 C0.99 0 1.98 0 3 0 C3.66 -2.64 4.32 -5.28 5 -8 C6.32 -8 7.64 -8 9 -8 C9 4.54 9 17.08 9 30 C7.35 29.67 5.7 29.34 4 29 C3.65388672 27.2984375 3.65388672 27.2984375 3.30078125 25.5625 C0.33548323 11.16144723 0.33548323 11.16144723 -9.375 0.625 C-16.26486665 -3.5520526 -23.01788185 -4.94267346 -31 -4 C-38.6280685 -2.11824138 -43.71310991 2.55094482 -48 9 C-57.99232411 29.51723403 -58.98091128 56.04861154 -52.125 77.75 C-49.37763428 85.05618135 -45.56287735 90.6738584 -39 95 C-33.46571374 97.47348712 -27.83473281 97.34733334 -22 96 C-18.88317974 94.6736935 -17.47335707 93.89190436 -15.88671875 90.90234375 C-14.75081283 87.18437855 -14.700242 83.66130276 -14.75 79.8125 C-14.75749268 79.0601709 -14.76498535 78.3078418 -14.77270508 77.53271484 C-14.58525773 67.39851219 -14.58525773 67.39851219 -19.125 58.9375 C-22.78775982 57.7431218 -26.1595102 57.32546524 -30 57 C-30 55.68 -30 54.36 -30 53 C-14.49 53 1.02 53 17 53 C17 54.32 17 55.64 17 57 C16.195625 57.2475 15.39125 57.495 14.5625 57.75 C11.86482191 58.69440606 11.86482191 58.69440606 11.35267639 60.84320068 C10.78755122 64.29923465 10.75973904 67.77188934 10.68359375 71.265625 C10.6524221 72.45572174 10.6524221 72.45572174 10.62062073 73.66986084 C10.55540027 76.19648844 10.49636856 78.72321721 10.4375 81.25 C10.3942886 82.96615616 10.35067347 84.68230222 10.30664062 86.3984375 C10.19974717 90.59885546 10.09840271 94.79937489 10 99 C8.68 99 7.36 99 6 99 C5.01 95.535 5.01 95.535 4 92 C-1.35854662 92.49641358 -5.05968785 93.83837541 -9.75 96.4375 C-22.85315613 103.28538059 -36.79692406 103.28025961 -50.875 99.3125 C-62.79979306 95.19999411 -72.32468863 88.51944351 -78.3125 77.25 C-85.25390678 61.98647065 -87.03757828 42.70383838 -81.96875 26.48828125 C-76.51937981 12.49131024 -68.17268013 2.30159871 -55 -5 C-35.42041034 -12.87534606 -17.47781473 -11.65187649 0 0 Z " fill="#FFFFFF" transform="translate(395,139)"/>
<path d="M0 0 C26.73 0 53.46 0 81 0 C81 11.22 81 22.44 81 34 C79.35 34 77.7 34 76 34 C75.65388672 32.40671875 75.65388672 32.40671875 75.30078125 30.78125 C72.92863971 18.36306068 72.92863971 18.36306068 65.32861328 8.81860352 C59.83581175 5.89561281 55.28150445 5.47240474 49.125 5.6875 C48.27164063 5.69716797 47.41828125 5.70683594 46.5390625 5.71679688 C42.11814809 5.67924642 42.11814809 5.67924642 38 7 C37.09683675 9.70948975 36.853425 11.40135334 36.79467773 14.19604492 C36.77473251 15.03668991 36.75478729 15.8773349 36.73423767 16.74345398 C36.70916893 18.09827629 36.70916893 18.09827629 36.68359375 19.48046875 C36.66281265 20.40845779 36.64203156 21.33644684 36.62062073 22.29255676 C36.55522677 25.2574624 36.49628738 28.22245672 36.4375 31.1875 C36.39430513 33.1972748 36.35069053 35.20704063 36.30664062 37.21679688 C36.19955573 42.14444032 36.09825955 47.07217299 36 52 C44.93422096 51.03896712 44.93422096 51.03896712 52 46 C53.27480866 43.55546452 54.33065547 41.2991689 55.3125 38.75 C55.57611328 38.1003125 55.83972656 37.450625 56.11132812 36.78125 C56.75377571 35.19265233 57.37871063 33.59699122 58 32 C59.32 32 60.64 32 62 32 C62.33 46.19 62.66 60.38 63 75 C61.35 75 59.7 75 58 75 C57.65388672 73.91332031 57.65388672 73.91332031 57.30078125 72.8046875 C54.61812102 64.42380617 54.61812102 64.42380617 49 58 C45.804753 57.27040642 45.804753 57.27040642 42.30859375 56.84765625 C41.12966553 56.68402588 39.9507373 56.52039551 38.73608398 56.35180664 C37.38172241 56.17766235 37.38172241 56.17766235 36 56 C36.11817586 61.92665216 36.24241928 67.8531341 36.37231445 73.77954102 C36.41565529 75.79610729 36.45733098 77.81271007 36.49731445 79.8293457 C36.55503747 82.72618617 36.61872622 85.62284306 36.68359375 88.51953125 C36.70030624 89.42274612 36.71701874 90.325961 36.73423767 91.25654602 C36.7641555 92.5175135 36.7641555 92.5175135 36.79467773 93.80395508 C36.81799416 94.91315056 36.81799416 94.91315056 36.84178162 96.04475403 C36.93912225 98.2151671 36.93912225 98.2151671 38 101 C44.36196365 104.18098183 55.60616262 102.85848842 62.3046875 101.1640625 C68.17803826 98.50409513 71.52963244 94.91191016 74 89 C76.09966939 83.09378711 77.856004 77.16613843 79 71 C80.65 71 82.3 71 84 71 C84 82.88 84 94.76 84 107 C56.28 107 28.56 107 0 107 C0.33 105.68 0.66 104.36 1 103 C1.56589844 102.87882812 2.13179688 102.75765625 2.71484375 102.6328125 C3.44832031 102.46523437 4.18179688 102.29765625 4.9375 102.125 C5.66839844 101.96257812 6.39929688 101.80015625 7.15234375 101.6328125 C9.20700294 101.17038477 9.20700294 101.17038477 10 99 C10.10373771 96.17827034 10.14680524 93.38103025 10.14526367 90.55883789 C10.14862228 89.68554337 10.1519809 88.81224884 10.15544128 87.91249084 C10.16496673 85.01586498 10.16689516 82.11929682 10.16796875 79.22265625 C10.1711801 77.21487911 10.17454408 75.2071022 10.17805481 73.19932556 C10.18404999 68.98680071 10.1858943 64.77429639 10.18530273 60.56176758 C10.18520106 55.15659039 10.19885675 49.75154442 10.21607494 44.34639835 C10.22717802 40.19863782 10.22922247 36.05090918 10.22869301 31.9031353 C10.22987555 29.90998316 10.23431259 27.91683027 10.24202538 25.9236927 C10.25179162 23.13921975 10.24896063 20.35503394 10.24291992 17.57055664 C10.25134918 16.32909882 10.25134918 16.32909882 10.25994873 15.06256104 C10.23849786 11.18350705 10.20222637 9.30333955 8 6 C6.04614933 5.21011855 6.04614933 5.21011855 3.875 4.8125 C1.956875 4.4103125 1.956875 4.4103125 0 4 C0 2.68 0 1.36 0 0 Z " fill="#FFFFFF" transform="translate(107,131)"/>
<path d="M0 0 C24.9311142 -2.42075479 24.9311142 -2.42075479 31.078125 2.625 C33.73645671 5.48431529 35.81117401 8.68619426 37.79785156 12.03759766 C39.72133953 15.17752379 42.05786329 17.95847585 44.375 20.8125 C45.28322915 21.97632279 46.18944085 23.14172245 47.09375 24.30859375 C50.28446423 28.38843312 53.57477431 32.38356591 56.875 36.375 C57.46071777 37.08366211 58.04643555 37.79232422 58.64990234 38.52246094 C59.23723145 39.23305664 59.82456055 39.94365234 60.4296875 40.67578125 C63.96922492 44.95829218 67.49077493 49.25512221 71 53.5625 C71.51546387 54.19269043 72.03092773 54.82288086 72.56201172 55.47216797 C75.16977352 58.67734738 77.71036963 61.91980041 80.18359375 65.23022461 C80.7139624 65.93948593 81.24433105 66.64874725 81.79077148 67.37950134 C82.3893396 68.18164818 82.3893396 68.18164818 83 69 C83.05075471 61.13463093 83.0857567 53.26930418 83.10986328 45.40380859 C83.11878335 42.72860034 83.13355637 40.05360611 83.15087891 37.37841797 C83.17516701 33.53089692 83.18649245 29.68352128 83.1953125 25.8359375 C83.20563507 24.64197357 83.21595764 23.44800964 83.22659302 22.21786499 C83.22674408 21.09715607 83.22689514 19.97644714 83.22705078 18.82177734 C83.231492 17.84026703 83.23593323 16.85875671 83.24050903 15.84750366 C82.96669205 12.60565091 82.26726852 9.99465475 81 7 C78.4041482 5.6344181 78.4041482 5.6344181 75.375 5.125 C74.37210937 4.90070313 73.36921875 4.67640625 72.3359375 4.4453125 C71.56507813 4.29835937 70.79421875 4.15140625 70 4 C70 2.68 70 1.36 70 0 C79.9 0 89.8 0 100 0 C100 1.32 100 2.64 100 4 C99.44570313 4.24234375 98.89140625 4.4846875 98.3203125 4.734375 C97.59585938 5.06953125 96.87140625 5.4046875 96.125 5.75 C95.40570313 6.07484375 94.68640625 6.3996875 93.9453125 6.734375 C91.58312125 8.27122232 91.06262786 9.41556462 90 12 C89.69457009 14.00936593 89.69457009 14.00936593 89.7215271 16.12554932 C89.71036362 16.93880676 89.69920013 17.75206421 89.68769836 18.58996582 C89.68553818 19.47325562 89.68337799 20.35654541 89.68115234 21.26660156 C89.67110672 22.20352844 89.6610611 23.14045532 89.65071106 24.10577393 C89.61983568 27.20071808 89.6028317 30.29557555 89.5859375 33.390625 C89.56722937 35.5372594 89.54765623 37.68388642 89.5272522 39.83050537 C89.47588758 45.47916313 89.43628494 51.12784474 89.39910889 56.77661133 C89.35909645 62.54123862 89.3079915 68.30576632 89.2578125 74.0703125 C89.1610019 85.38013841 89.07661347 96.6900205 89 108 C87.5430032 108.03409834 86.0857788 108.05857826 84.62852478 108.0789032 C83.81706969 108.0935496 83.0056146 108.10819601 82.16956997 108.12328625 C80 108 80 108 77.94360352 106.73754883 C77.29282837 105.85619263 77.29282837 105.85619263 76.62890625 104.95703125 C76.12286865 104.30210693 75.61683105 103.64718262 75.09545898 102.97241211 C74.58958252 102.25964111 74.08370605 101.54687012 73.5625 100.8125 C73.00957275 100.08361572 72.45664551 99.35473145 71.88696289 98.60375977 C70.76331042 97.11815141 69.65141668 95.62357236 68.55175781 94.12011719 C66.40145707 91.1822299 64.16872512 88.31441727 61.9375 85.4375 C61.14085937 84.39335937 60.34421875 83.34921875 59.5234375 82.2734375 C56.75475046 78.66162927 53.91198299 75.11070679 51.0625 71.5625 C45.78978662 64.99686073 40.57333068 58.38945879 35.38085938 51.76025391 C33.94945737 49.93557065 32.51428129 48.11391193 31.078125 46.29296875 C30.5941626 45.67881104 30.1102002 45.06465332 29.61157227 44.43188477 C28.70127935 43.27689113 27.7903697 42.12238313 26.87866211 40.96850586 C24.49218653 37.93770475 22.14877227 34.87891216 19.8371582 31.79052734 C19.30379349 31.07826996 18.77042877 30.36601257 18.22090149 29.63217163 C17.818004 29.09355499 17.41510651 28.55493835 17 28 C16.93032743 36.3540203 16.87710157 44.70791812 16.84456348 53.06215763 C16.82894265 56.94185246 16.80777051 60.82134773 16.77368164 64.70092773 C16.74095944 68.44864792 16.72312006 72.19617678 16.71536827 75.94402885 C16.70984773 77.37010139 16.69906756 78.79616407 16.68280983 80.22215462 C16.41428145 90.55785853 16.41428145 90.55785853 20 100 C22.97583822 102.25753244 26.34955631 102.50221222 30 103 C30 104.32 30 105.64 30 107 C20.1 107 10.2 107 0 107 C0.33 105.68 0.66 104.36 1 103 C3.32671865 101.98470459 5.6603447 100.98511802 8 100 C11.90028759 95.21328342 11.1277446 86.27315557 11.14526367 80.40991211 C11.14862228 79.69822372 11.1519809 78.98653534 11.15544128 78.25328064 C11.1648505 75.92795004 11.16688887 73.60269213 11.16796875 71.27734375 C11.17118684 69.64644848 11.17455132 68.01555349 11.17805481 66.38465881 C11.1840199 62.97803071 11.18589727 59.57142788 11.18530273 56.16479492 C11.18520092 51.81167231 11.19888439 47.4587121 11.21607494 43.10562801 C11.22721813 39.74177818 11.22922128 36.37796743 11.22869301 33.01410103 C11.22986842 31.40942383 11.23426541 29.80474546 11.24202538 28.20008659 C11.25187832 25.95350738 11.24892722 23.70727883 11.24291992 21.46069336 C11.24434494 20.18576523 11.24576996 18.9108371 11.24723816 17.59727478 C10.98549579 13.78896611 10.28976743 10.58975459 9 7 C6.88930037 5.53808346 6.88930037 5.53808346 4.375 5.0625 C3.55773437 4.84722656 2.74046875 4.63195312 1.8984375 4.41015625 C0.95871094 4.20712891 0.95871094 4.20712891 0 4 C0 2.68 0 1.36 0 0 Z " fill="#FFFFFF" transform="translate(202,131)"/>
<path d="M0 0 C15.84 0 31.68 0 48 0 C48 1.32 48 2.64 48 4 C47.28972656 4.19335938 46.57945312 4.38671875 45.84765625 4.5859375 C44.46900391 4.97652344 44.46900391 4.97652344 43.0625 5.375 C42.14597656 5.63023437 41.22945312 5.88546875 40.28515625 6.1484375 C37.83254913 6.76660104 37.83254913 6.76660104 37 9 C36.88650011 11.38281508 36.83221348 13.73710615 36.82299805 16.12084961 C36.81642685 16.85449738 36.80985565 17.58814514 36.80308533 18.34402466 C36.78332619 20.78013207 36.77167837 23.21617748 36.76171875 25.65234375 C36.75764322 26.48628725 36.7535677 27.32023075 36.74936867 28.17944527 C36.72848777 32.60115436 36.71419995 37.02283231 36.70483398 41.44458008 C36.69381994 45.99045 36.65948456 50.53582358 36.61966228 55.08151913 C36.59336999 58.59309225 36.58513059 62.10454998 36.58155251 65.61621284 C36.57671188 67.29018025 36.56517077 68.9641434 36.54651451 70.63801384 C36.20461846 86.3362412 36.20461846 86.3362412 43.5625 99.625 C50.12832284 103.3287975 59.30848535 103.12625046 66.5546875 101.38671875 C72.66092276 98.68999617 76.52587964 93.62771806 79 87.5390625 C81.93987409 78.35195598 82.15842036 69.25282209 82.16796875 59.6875 C82.17129715 58.51920654 82.17462555 57.35091309 82.17805481 56.1472168 C82.18309906 53.68636466 82.18546391 51.22550574 82.18530273 48.76464844 C82.18749285 45.01225503 82.20568546 41.26015414 82.22460938 37.5078125 C82.22754314 35.109376 82.22952805 32.71093811 82.23046875 30.3125 C82.24124702 28.64030396 82.24124702 28.64030396 82.25224304 26.93432617 C82.35593424 17.05163096 82.35593424 17.05163096 78.66796875 8.10546875 C76.61596215 6.74547374 74.66627102 6.02886509 72.3125 5.3125 C71.50425781 5.06113281 70.69601562 4.80976563 69.86328125 4.55078125 C69.24839844 4.36902344 68.63351562 4.18726563 68 4 C68 2.68 68 1.36 68 0 C77.9 0 87.8 0 98 0 C97.67 1.65 97.34 3.3 97 5 C95.865625 5.45375 94.73125 5.9075 93.5625 6.375 C89.80521473 7.60991802 89.80521473 7.60991802 88.79663086 10.75561523 C87.40711068 16.56436869 87.7015317 22.60076388 87.69140625 28.53515625 C87.67267827 30.53901955 87.65393291 32.54288284 87.63422298 34.54673672 C87.58918229 39.45318239 87.56540925 44.35976162 87.54370117 49.26635742 C87.53076816 52.0252223 87.50992235 54.78383964 87.48143005 57.54258728 C87.45553286 60.12595811 87.44129658 62.70948339 87.4410553 65.29298401 C87.30119554 77.85021478 85.96538396 90.88587471 77.5078125 100.73828125 C69.58710594 108.37475193 58.6114587 110.08557628 48 110 C37.16651674 109.43425143 26.22354682 106.91765076 18.5 98.75 C12.36227969 90.56637292 10.91857947 81.13397954 10.81054688 71.13427734 C10.80225357 70.48779739 10.79396027 69.84131744 10.78541565 69.17524719 C10.76814851 67.78505132 10.75294668 66.3948285 10.73963928 65.00458908 C10.71841789 62.80145894 10.69141572 60.59846419 10.66296387 58.39541626 C10.59351895 52.92833328 10.53377989 47.46115258 10.47393799 41.99395752 C10.42288735 37.36191492 10.36804259 32.72994761 10.30812073 28.09801102 C10.28166911 25.93274461 10.26078704 23.76747046 10.2401123 21.60214233 C10.22339478 20.28372345 10.20667725 18.96530457 10.18945312 17.60693359 C10.17692505 16.44890228 10.16439697 15.29087097 10.15148926 14.0977478 C10.0140427 11.28715389 9.63966656 8.73481849 9 6 C4.545 5.01 4.545 5.01 0 4 C0 2.68 0 1.36 0 0 Z " fill="#FFFFFF" transform="translate(662,131)"/>
<path d="M0 0 C15.84 0 31.68 0 48 0 C48 1.32 48 2.64 48 4 C47.28972656 4.19335938 46.57945312 4.38671875 45.84765625 4.5859375 C44.46900391 4.97652344 44.46900391 4.97652344 43.0625 5.375 C42.14597656 5.63023437 41.22945313 5.88546875 40.28515625 6.1484375 C37.83254913 6.76660104 37.83254913 6.76660104 37 9 C36.90658918 11.92933767 36.87426252 14.83474709 36.88647461 17.76416016 C36.88632858 18.67153427 36.88618256 19.57890839 36.8860321 20.51377869 C36.88673049 23.52223068 36.89451946 26.53062128 36.90234375 29.5390625 C36.90420819 31.62128668 36.90563197 33.70351131 36.90663147 35.78573608 C36.91045459 41.27336838 36.92028314 46.76097433 36.93133545 52.24859619 C36.94155398 57.84541467 36.94613004 63.44223739 36.95117188 69.0390625 C36.96190557 80.02605326 36.97897955 91.01302444 37 102 C40.16634636 102.11760715 43.33212074 102.18771024 46.5 102.25 C47.386875 102.28351563 48.27375 102.31703125 49.1875 102.3515625 C56.27359185 102.45576973 61.48173151 100.95534554 66.953125 96.359375 C73.4153514 88.33998561 76.17710351 79.85010691 79 70 C80.32 70 81.64 70 83 70 C83.33 82.21 83.66 94.42 84 107 C56.28 107 28.56 107 0 107 C0.33 105.68 0.66 104.36 1 103 C3.64 102.67 6.28 102.34 9 102 C10.10966437 97.54234213 10.14126275 93.18060617 10.12939453 88.6171875 C10.13114685 87.78568176 10.13289917 86.95417603 10.13470459 86.09747314 C10.13909565 83.35662736 10.13619477 80.61584641 10.1328125 77.875 C10.13348633 75.96598295 10.13445701 74.05696598 10.13571167 72.14794922 C10.13718492 68.15005678 10.13504603 64.15218671 10.13037109 60.15429688 C10.12467404 55.03305277 10.12795503 49.91186108 10.13394356 44.7906189 C10.1375592 40.84952399 10.13640596 36.90844148 10.13381577 32.96734619 C10.13314928 31.07912184 10.13396521 29.19089637 10.13629532 27.30267334 C10.13883827 24.66268944 10.13495803 22.02279011 10.12939453 19.3828125 C10.13141876 18.60448059 10.13344299 17.82614868 10.13552856 17.02423096 C10.12071478 13.22460017 9.91952225 9.69383365 9 6 C4.545 5.01 4.545 5.01 0 4 C0 2.68 0 1.36 0 0 Z " fill="#FFFFFF" transform="translate(420,131)"/>
<path d="M0 0 C15.51 0 31.02 0 47 0 C47 1.32 47 2.64 47 4 C43.7 4.66 40.4 5.32 37 6 C36.16893227 11.0660182 35.85150881 15.98254493 35.85473633 21.11914062 C35.85137772 21.89895798 35.8480191 22.67877533 35.84455872 23.48222351 C35.83511933 26.04024888 35.83310942 28.59820834 35.83203125 31.15625 C35.82881472 32.94551622 35.82545035 34.73478218 35.82194519 36.52404785 C35.81597215 40.26620087 35.8141035 44.00833084 35.81469727 47.75048828 C35.814799 52.53521983 35.80112724 57.31980336 35.78392506 62.10449982 C35.77278631 65.7969022 35.7707786 69.48926894 35.77130699 73.1816864 C35.77013046 74.94545504 35.7657271 76.7092247 35.75797462 78.47297668 C35.74813305 80.94237561 35.75106869 83.41145486 35.75708008 85.88085938 C35.75146057 86.60210495 35.74584106 87.32335052 35.74005127 88.06645203 C35.76908558 92.78071034 36.39987035 96.60521846 38 101 C40.11069963 102.46191654 40.11069963 102.46191654 42.625 102.9375 C43.44226563 103.15277344 44.25953125 103.36804688 45.1015625 103.58984375 C45.72804688 103.72519531 46.35453125 103.86054688 47 104 C47 104.99 47 105.98 47 107 C31.16 107 15.32 107 -1 107 C-0.67 105.68 -0.34 104.36 0 103 C2.01822917 102.67447917 4.03645833 102.34895833 6.0546875 102.0234375 C8.26549575 101.12010792 8.26549575 101.12010792 9.10540771 98.44311523 C10.12088833 94.53472386 10.28083038 90.89248188 10.25878906 86.88671875 C10.2622937 86.09568756 10.26579834 85.30465637 10.26940918 84.48965454 C10.27817301 81.88884567 10.27239632 79.28831138 10.265625 76.6875 C10.26697319 74.8719884 10.268915 73.05647716 10.27142334 71.2409668 C10.27436736 67.44153394 10.2701002 63.64219532 10.26074219 59.84277344 C10.2493481 54.98055012 10.25591144 50.11854762 10.26788712 45.2563324 C10.27512521 41.50905707 10.27280882 37.76183381 10.26763153 34.01455688 C10.26630043 32.2220558 10.2679238 30.42954994 10.27259064 28.63705444 C10.27768794 26.12900322 10.26990079 23.6213062 10.25878906 21.11328125 C10.26283752 20.37751862 10.26688599 19.64175598 10.27105713 18.88369751 C10.23569725 14.56038346 9.73132485 10.97690088 8 7 C5.8714152 5.65055364 5.8714152 5.65055364 3.375 5.125 C2.55773437 4.90070313 1.74046875 4.67640625 0.8984375 4.4453125 C0.27195312 4.29835937 -0.35453125 4.15140625 -1 4 C-0.67 2.68 -0.34 1.36 0 0 Z " fill="#FFFFFF" transform="translate(512,131)"/>
</svg>
